<svg xmlns="http://www.w3.org/2000/svg" viewBox="0 0 500 465" width="500" height="465">
  <polyline points="453.0,190.2 470.8,166.5 483.9,139.4 490.0,110.4 487.9,81.8 477.3,55.7 458.9,34.3 434.3,19.3 405.8,11.4 375.9,10.2 346.8,14.7 320.3,22.9 297.4,32.4 278.1,40.8 261.5,46.2 246.2,47.4 230.5,44.0 212.7,36.9 191.7,27.7 166.9,18.5 138.9,11.9 109.1,10.0 79.6,14.4 52.8,26.0 31.0,44.3 16.4,68.3 10.0,95.9 12.1,125.0 21.9,153.3 37.7,178.8 57.0,200.5 77.4,218.1 96.3,232.3 112.0,244.4 123.5,256.2 130.7,269.6 134.8,286.1 137.2,306.5 140.2,330.6 145.8,357.4 155.6,385.1 170.7,411.1 191.0,432.8 215.6,448.0 243.0,454.8 270.9,452.5 297.2,441.4 319.8,422.6 337.5,398.4 349.9,371.3 357.5,343.8 361.5,318.1 364.0,295.8 367.0,277.4 372.4,262.6 381.7,250.2 395.4,238.5 412.9,225.5 432.8,209.8 453.0,190.2" fill="none" stroke="black" stroke-width="1.5" stroke-linejoin="round" stroke-linecap="round" />
</svg>
